<?xml version="1.0" encoding="iso-8859-1"?>
<!-- Generator: Adobe Illustrator 17.1.0, SVG Export Plug-In . SVG Version: 6.00 Build 0)  -->
<!DOCTYPE svg PUBLIC "-//W3C//DTD SVG 1.1//EN" "http://www.w3.org/Graphics/SVG/1.1/DTD/svg11.dtd">
<svg version="1.1" id="Capa_1" xmlns="http://www.w3.org/2000/svg" xmlns:xlink="http://www.w3.org/1999/xlink" x="0px" y="0px"
	 viewBox="0 0 204.987 204.987" style="enable-background:new 0 0 204.987 204.987;" xml:space="preserve">
<path d="M196.362,161.802H8.625c-4.756,0-8.625-3.869-8.625-8.625v-5.37c0-1.381,1.119-2.5,2.5-2.5h13.575V52.199
	c0-4.97,4.043-9.014,9.014-9.014h154.811c4.97,0,9.014,4.044,9.014,9.014v93.107h13.575c1.381,0,2.5,1.119,2.5,2.5v5.37
	C204.987,157.933,201.118,161.802,196.362,161.802z M5,150.307v2.87c0,1.999,1.626,3.625,3.625,3.625h187.737
	c1.999,0,3.625-1.626,3.625-3.625v-2.87H5z M178.275,145.307h5.638V52.199c0-2.213-1.801-4.014-4.014-4.014H25.088
	c-2.213,0-4.014,1.801-4.014,4.014v93.107h5.638v-4.376c0-1.381,1.119-2.5,2.5-2.5h26.633c1.381,0,2.5,1.119,2.5,2.5v4.376h88.296
	v-4.376c0-1.381,1.119-2.5,2.5-2.5h26.633c1.381,0,2.5,1.119,2.5,2.5V145.307z M151.642,145.307h21.633v-1.876h-21.633V145.307z
	 M31.712,145.307h21.633v-1.876H31.712V145.307z M175.775,134.862H29.212c-1.381,0-2.5-1.119-2.5-2.5V55.456
	c0-1.381,1.119-2.5,2.5-2.5h146.563c1.381,0,2.5,1.119,2.5,2.5v76.906C178.275,133.743,177.156,134.862,175.775,134.862z
	 M31.712,129.862h141.563V57.956H31.712V129.862z"/>
<g>
</g>
<g>
</g>
<g>
</g>
<g>
</g>
<g>
</g>
<g>
</g>
<g>
</g>
<g>
</g>
<g>
</g>
<g>
</g>
<g>
</g>
<g>
</g>
<g>
</g>
<g>
</g>
<g>
</g>
</svg>
